# xmcd
#
# Track frame offsets: 
#        150
#        15550
#        30215
#        42985
#        56310
#        75432
#        89160
#        127397
#
# Disc length: 1847 seconds
#
# Revision: 0
# Processed by: cddbd v1.5.1PL0 Copyright (c) Steve Scherf et al.
# Submitted via: ExactAudioCopy v0.95b1
#
DISCID=5c073508
DTITLE=Rude Mood - Shake for me
DYEAR=1996
DGENRE=Blues
TTITLE0=Shake for me
TTITLE1=Ain't giving it up
TTITLE2=Give me back my wig
TTITLE3=Keep on lovin' me baby
TTITLE4=Wang dang doodle
TTITLE5=Johnny guitar
TTITLE6=That's why I'm crying
TTITLE7=Mercy
EXTD=
EXTT0=
EXTT1=
EXTT2=
EXTT3=
EXTT4=
EXTT5=
EXTT6=
EXTT7=
PLAYORDER=
